<?xml version="1.0" standalone="no"?>
<!DOCTYPE svg PUBLIC "-//W3C//DTD SVG 20010904//EN"
 "http://www.w3.org/TR/2001/REC-SVG-20010904/DTD/svg10.dtd">
<svg version="1.0" xmlns="http://www.w3.org/2000/svg"
 width="160.000000pt" height="160.000000pt" viewBox="0 0 160.000000 160.000000"
 preserveAspectRatio="xMidYMid meet">
<metadata>
Created by potrace 1.11, written by Peter Selinger 2001-2013
</metadata>
<g transform="translate(0.000000,160.000000) scale(0.100000,-0.100000)"
fill="#000000" stroke="none">
<path d="M0 820 c0 -760 0 -780 19 -799 19 -19 40 -20 799 -20 l780 -1 -2 220
c-1 206 -2 220 -21 234 -11 9 -23 16 -27 16 -5 0 -8 8 -8 18 0 14 4 13 19 -7
33 -43 43 -19 40 96 -2 57 -6 106 -11 109 -4 3 -4 13 0 22 13 25 15 115 3 108
-5 -4 -13 -2 -16 4 -4 6 -1 9 7 8 11 -2 14 69 16 385 l3 387 -800 0 -800 0 -1
-780z m1580 -60 c0 -5 -5 -10 -11 -10 -5 0 -7 5 -4 10 3 6 8 10 11 10 2 0 4
-4 4 -10z m0 -166 c0 -8 -4 -12 -10 -9 -5 3 -10 13 -10 21 0 8 5 12 10 9 6 -3
10 -13 10 -21z m-6 -213 c4 -5 -3 -7 -14 -4 -23 6 -26 13 -6 13 8 0 17 -4 20
-9z"/>
</g>
</svg>
